<svg width="255" height="39" viewBox="0 0 255 39" fill="none" xmlns="http://www.w3.org/2000/svg">
<g clip-path="url(#clip0_174_4404)">
<path d="M36.5617 7.99014V0.236328H7.33359C5.30469 0.236328 3.35888 1.0473 1.92423 2.49084C0.489574 3.93437 -0.316406 5.89223 -0.316406 7.9337V15.8004C-0.316406 17.8419 0.489574 19.7997 1.92423 21.2433C3.35888 22.6868 5.30469 23.4978 7.33359 23.4978H30.5029V31.2465H0.234394V39.0003H30.559C32.5879 39.0003 34.5337 38.1893 35.9684 36.7458C37.403 35.3022 38.209 33.3444 38.209 31.3029V23.4413C38.209 21.3999 37.403 19.442 35.9684 17.9985C34.5337 16.5549 32.5879 15.744 30.559 15.744H7.38969V7.99014H36.5617Z" fill="#9945FF"/>
<path d="M44.5225 7.9337V31.3029C44.5225 33.3444 45.3284 35.3022 46.7631 36.7458C48.1977 38.1893 50.1436 39.0003 52.1725 39.0003H75.3979C77.4268 39.0003 79.3726 38.1893 80.8072 36.7458C82.2419 35.3022 83.0479 33.3444 83.0479 31.3029V7.9337C83.0479 5.89223 82.2419 3.93437 80.8072 2.49084C79.3726 1.0473 77.4268 0.236328 75.3979 0.236328H52.1725C50.1436 0.236328 48.1977 1.0473 46.7631 2.49084C45.3284 3.93437 44.5225 5.89223 44.5225 7.9337ZM75.3418 31.2465H52.2133V7.99014H75.3265L75.3418 31.2465Z" fill="#9945FF"/>
<path d="M126.479 7.9337V39.0003H134.186V26.2637H156.758V39.0003H164.459V7.9337C164.459 5.89223 163.653 3.93437 162.219 2.49084C160.784 1.0473 158.838 0.236328 156.809 0.236328H134.129C132.101 0.236328 130.155 1.0473 128.72 2.49084C127.285 3.93437 126.479 5.89223 126.479 7.9337ZM156.758 18.5099H134.191V7.99014H156.763L156.758 18.5099Z" fill="#9945FF"/>
<path d="M216.709 7.9337V39.0003H224.4V26.2637H246.967V39.0003H254.673V7.9337C254.673 5.89223 253.867 3.93437 252.433 2.49084C250.998 1.0473 249.052 0.236328 247.023 0.236328H224.359C222.33 0.236328 220.384 1.0473 218.95 2.49084C217.515 3.93437 216.709 5.89223 216.709 7.9337ZM246.977 18.5099H224.4V7.99014H246.967L246.977 18.5099Z" fill="#9945FF"/>
<path d="M202.154 0.236328V31.2465H199.094L188.017 3.46409C187.638 2.51187 186.985 1.69545 186.142 1.12013C185.298 0.544811 184.303 0.236977 183.284 0.236328H176.424C175.072 0.236328 173.774 0.776975 172.818 1.73933C171.862 2.70169 171.324 4.00693 171.324 5.36791V39.0003H179.01V7.99014H182.095L193.142 35.7776C193.521 36.7297 194.175 37.5456 195.02 38.12C195.864 38.6945 196.861 39.0011 197.88 39.0003H204.739C206.092 39.0003 207.389 38.4596 208.346 37.4973C209.302 36.5349 209.839 35.2297 209.839 33.8687V0.236328H202.154Z" fill="#9945FF"/>
<path d="M97.6041 31.2465V0.236328H89.9082V31.3029C89.9082 33.3444 90.7142 35.3022 92.1488 36.7458C93.5835 38.1893 95.5293 39.0003 97.5582 39.0003H120.727V31.2465H97.6041Z" fill="#9945FF"/>
</g>
<defs>
<clipPath id="clip0_174_4404">
<rect width="255" height="39" fill="white"/>
</clipPath>
</defs>
</svg>
